<?xml version="1.0" encoding="UTF-8"?>
<svg width="693px" height="199px" viewBox="0 0 693 199" version="1.1" xmlns="http://www.w3.org/2000/svg" xmlns:xlink="http://www.w3.org/1999/xlink">
    <!-- Generator: Sketch 46.2 (44496) - http://www.bohemiancoding.com/sketch -->
    <title>logo-plain-blue@2x</title>
    <desc>Created with Sketch.</desc>
    <defs></defs>
    <g id="Page-1" stroke="none" stroke-width="1" fill="none" fill-rule="evenodd">
        <g id="Artboard" transform="translate(-390.000000, -637.000000)" fill-rule="nonzero" fill="#4360DF">
            <path d="M623.460656,759.906856 L648.244656,759.906856 C648.244656,763.473523 649.427322,766.03219 651.796655,767.586856 C654.164655,769.14019 657.205989,769.917523 660.919322,769.917523 C663.987322,769.917523 666.501988,769.40819 668.467322,768.385523 C670.431322,767.36419 671.413988,765.690856 671.413988,763.361523 C671.413988,761.985523 670.995322,760.85619 670.161988,759.977523 C669.327322,759.10019 668.048655,758.314857 666.327322,757.625523 C664.605988,756.937523 662.408655,756.177523 659.735322,755.345523 C657.063322,754.513523 653.824655,753.50419 650.020655,752.318857 C646.629989,751.242857 643.440656,750.125523 640.453989,748.96819 C637.467322,747.81219 634.843323,746.37219 632.583323,744.649524 C630.321989,742.92819 628.559323,740.82819 627.295323,738.35219 C626.029989,735.877524 625.397989,732.809524 625.397989,729.149524 C625.397989,724.950857 626.232656,721.318857 627.900656,718.250858 C629.568656,715.182858 631.908656,712.654858 634.924656,710.661524 C637.937989,708.670858 641.544656,707.177524 645.741989,706.181524 C649.939322,705.186858 654.568655,704.688191 659.627322,704.688191 C665.816655,704.688191 671.144655,705.388191 675.611321,706.786858 C680.077988,708.186858 683.737988,710.097524 686.591321,712.518858 C689.441988,714.940191 691.555321,717.793524 692.928654,721.076191 C694.300654,724.360191 694.987321,727.884191 694.987321,731.652191 L670.041988,731.652191 C670.041988,728.369524 669.193988,725.813524 667.497988,723.982857 C665.803322,722.153524 663.232655,721.237524 659.788655,721.237524 C657.151322,721.237524 654.891322,721.817524 653.007322,722.973524 C651.123322,724.130857 650.181989,725.866857 650.181989,728.180191 C650.181989,729.732191 650.625989,730.977524 651.516655,731.913524 C652.405989,732.84819 653.712655,733.690857 655.437989,734.44019 C657.163322,735.189524 659.292655,735.966857 661.824655,736.76819 C664.357988,737.570857 667.261988,738.49219 670.536655,739.530857 C674.085988,740.442857 677.393988,741.457524 680.460655,742.57219 C683.527321,743.689524 686.229988,745.045524 688.571321,746.64419 C690.911321,748.24019 692.765988,750.242857 694.139321,752.65219 C695.511321,755.06019 696.197988,758.114857 696.197988,761.817523 C696.197988,766.70019 695.228654,770.858856 693.291321,774.293523 C691.353988,777.726856 688.756654,780.524189 685.500655,782.681523 C682.244655,784.837523 678.463321,786.385522 674.157988,787.322856 C669.852655,788.258856 665.331322,788.726856 660.596655,788.726856 C648.809989,788.726856 639.673989,786.265522 633.188656,781.340189 C626.701989,776.416189 623.460656,769.270856 623.460656,759.906856 Z M697.861721,725.678057 L697.861721,706.868724 L710.293721,706.868724 L710.293721,683.214058 L735.56172,683.214058 L735.56172,706.868724 L753.64572,706.868724 L753.64572,725.678057 L735.56172,725.678057 L735.56172,754.011389 C735.56172,756.955389 735.831053,759.296723 736.36972,761.035389 C736.907053,762.774056 737.67372,764.139389 738.66972,765.128722 C739.66572,766.118056 740.876387,766.760722 742.303053,767.054056 C743.728386,767.350056 745.331053,767.495389 747.107053,767.495389 C748.18172,767.495389 749.555053,767.455389 751.223053,767.374056 C752.891053,767.294056 754.344386,767.147389 755.583053,766.930056 L755.583053,786.532722 C753.699053,786.858055 751.344386,787.158055 748.519053,787.430055 C745.69372,787.703389 742.36972,787.839389 738.54972,787.839389 C735.584387,787.839389 732.456387,787.623389 729.164387,787.194055 C725.86972,786.762055 722.820387,785.634055 720.011054,783.803389 C717.204387,781.974055 714.883054,779.160722 713.048387,775.367389 C711.211054,771.572722 710.293721,766.366056 710.293721,759.746056 L710.293721,725.678057 L697.861721,725.678057 Z M757.972653,746.667457 C757.972653,740.694124 758.931319,735.150124 760.848653,730.036791 C762.765986,724.924791 765.437986,720.526124 768.868652,716.838124 C772.297986,713.151458 776.308652,710.232791 780.899319,708.079458 C785.489985,705.926124 790.459319,704.850125 795.808652,704.850125 C801.768652,704.850125 806.937985,706.115458 811.315318,708.643458 C815.692651,711.174124 818.981985,714.375458 821.183318,718.251458 L821.183318,706.867458 L846.451317,706.867458 L846.451317,786.547456 L821.183318,786.547456 L821.183318,775.326123 C819.195318,778.986123 815.999318,782.107456 811.597985,784.691456 C807.192652,787.274122 801.929985,788.566122 795.808652,788.566122 C790.515319,788.566122 785.559319,787.488789 780.940652,785.336789 C776.321986,783.184789 772.297986,780.250123 768.868652,776.536789 C765.437986,772.823456 762.765986,768.411456 760.848653,763.298123 C758.931319,758.186123 757.972653,752.64079 757.972653,746.667457 Z M783.240652,746.667457 C783.240652,749.41279 783.709985,752.035457 784.649985,754.538123 C785.589985,757.04079 786.879319,759.195456 788.516652,760.99679 C790.155319,762.80079 792.128652,764.25279 794.437985,765.35679 C796.745985,766.46079 799.324652,767.011456 802.171318,767.011456 C805.016652,767.011456 807.608652,766.46079 809.944651,765.35679 C812.281985,764.25279 814.268651,762.80079 815.907318,760.99679 C817.544651,759.195456 818.832651,757.055457 819.772651,754.579457 C820.712651,752.103457 821.183318,749.467457 821.183318,746.667457 C821.183318,743.922124 820.712651,741.339457 819.772651,738.918124 C818.832651,736.495457 817.544651,734.343457 815.907318,732.459457 C814.268651,730.576791 812.293985,729.095457 809.985985,728.019457 C807.676652,726.943457 805.071318,726.404791 802.171318,726.404791 C799.324652,726.404791 796.745985,726.943457 794.437985,728.019457 C792.128652,729.095457 790.155319,730.576791 788.516652,732.459457 C786.879319,734.343457 785.589985,736.495457 784.649985,738.918124 C783.709985,741.339457 783.240652,743.922124 783.240652,746.667457 Z M855.219717,725.678057 L855.219717,706.868724 L867.651717,706.868724 L867.651717,683.214058 L892.919716,683.214058 L892.919716,706.868724 L911.003716,706.868724 L911.003716,725.678057 L892.919716,725.678057 L892.919716,754.011389 C892.919716,756.955389 893.189049,759.296723 893.727716,761.035389 C894.265049,762.774056 895.031716,764.139389 896.027716,765.128722 C897.023716,766.118056 898.234383,766.760722 899.661049,767.054056 C901.086383,767.350056 902.689049,767.495389 904.465049,767.495389 C905.539716,767.495389 906.913049,767.455389 908.581049,767.374056 C910.249049,767.294056 911.702382,767.147389 912.941049,766.930056 L912.941049,786.532722 C911.057049,786.858055 908.702382,787.158055 905.877049,787.430055 C903.051716,787.703389 899.727716,787.839389 895.907716,787.839389 C892.942383,787.839389 889.814383,787.623389 886.522383,787.194055 C883.227716,786.762055 880.178383,785.634055 877.36905,783.803389 C874.562383,781.974055 872.24105,779.160722 870.406383,775.367389 C868.56905,771.572722 867.651717,766.366056 867.651717,759.746056 L867.651717,725.678057 L855.219717,725.678057 Z M920.579049,754.175057 L920.579049,706.868391 L945.847048,706.868391 L945.847048,747.71639 C945.847048,753.423057 946.867048,758.06439 948.905715,761.643056 C950.945715,765.221723 954.595048,767.011056 959.855048,767.011056 C965.115048,767.011056 968.993714,765.195056 971.489714,761.561723 C973.984381,757.92839 975.232381,753.019057 975.232381,746.82839 L975.232381,706.868391 L1000.50038,706.868391 L1000.50038,786.547056 L975.232381,786.547056 L975.232381,775.164389 C973.032381,779.363056 969.677714,782.647056 965.168381,785.013723 C960.661714,787.380389 955.267048,788.565722 948.987048,788.565722 C943.467048,788.565722 938.936382,787.703056 935.391048,785.981723 C931.847048,784.260389 928.964382,782.081723 926.747049,779.443056 C924.204382,776.375056 922.540382,772.823056 921.756382,768.787056 C920.971049,764.751056 920.579049,759.88039 920.579049,754.175057 Z M1009.62905,759.906856 L1034.41305,759.906856 C1034.41305,763.473523 1035.59705,766.03219 1037.96505,767.586856 C1040.33171,769.14019 1043.37438,769.917523 1047.08771,769.917523 C1050.15571,769.917523 1052.67038,769.40819 1054.63571,768.385523 C1056.59971,767.36419 1057.58238,765.690856 1057.58238,763.361523 C1057.58238,761.985523 1057.16371,760.85619 1056.33038,759.977523 C1055.49571,759.10019 1054.21705,758.314857 1052.49571,757.625523 C1050.77438,756.937523 1048.57705,756.177523 1045.90371,755.345523 C1043.23171,754.513523 1039.99305,753.50419 1036.18905,752.318857 C1032.79838,751.242857 1029.60905,750.125523 1026.62238,748.96819 C1023.63571,747.81219 1021.01171,746.37219 1018.75171,744.649524 C1016.49038,742.92819 1014.72771,740.82819 1013.46371,738.35219 C1012.19838,735.877524 1011.56638,732.809524 1011.56638,729.149524 C1011.56638,724.950857 1012.39971,721.318857 1014.06905,718.250858 C1015.73705,715.182858 1018.07838,712.654858 1021.09305,710.661524 C1024.10505,708.670858 1027.71305,707.177524 1031.91038,706.181524 C1036.10771,705.186858 1040.73571,704.688191 1045.79571,704.688191 C1051.98505,704.688191 1057.31305,705.388191 1061.77971,706.786858 C1066.24638,708.186858 1069.90638,710.097524 1072.75971,712.518858 C1075.61038,714.940191 1077.72371,717.793524 1079.09705,721.076191 C1080.46905,724.360191 1081.15571,727.884191 1081.15571,731.652191 L1056.21038,731.652191 C1056.21038,728.369524 1055.36238,725.813524 1053.66638,723.982857 C1051.97171,722.153524 1049.40105,721.237524 1045.95705,721.237524 C1043.31971,721.237524 1041.05838,721.817524 1039.17571,722.973524 C1037.29171,724.130857 1036.35038,725.866857 1036.35038,728.180191 C1036.35038,729.732191 1036.79438,730.977524 1037.68505,731.913524 C1038.57438,732.84819 1039.88105,733.690857 1041.60638,734.44019 C1043.33171,735.189524 1045.45971,735.966857 1047.99305,736.76819 C1050.52638,737.570857 1053.43038,738.49219 1056.70505,739.530857 C1060.25438,740.442857 1063.56238,741.457524 1066.62905,742.57219 C1069.69571,743.689524 1072.39838,745.045524 1074.73971,746.64419 C1077.07971,748.24019 1078.93438,750.242857 1080.30771,752.65219 C1081.67971,755.06019 1082.36638,758.114857 1082.36638,761.817523 C1082.36638,766.70019 1081.39705,770.858856 1079.45971,774.293523 C1077.52238,777.726856 1074.92505,780.524189 1071.66905,782.681523 C1068.41305,784.837523 1064.63171,786.385522 1060.32638,787.322856 C1056.02105,788.258856 1051.49971,788.726856 1046.76505,788.726856 C1034.97838,788.726856 1025.84105,786.265522 1019.35705,781.340189 C1012.87171,776.416189 1009.62905,769.270856 1009.62905,759.906856 Z M457.546665,637 L521.119997,637 C543.138663,637 550.158663,637 560.091996,640.310667 C571.679996,644.449334 581.217329,653.969333 585.355996,665.558666 C588.666662,675.492 588.666662,682.527999 588.666662,704.546665 L588.666662,768.119997 C588.666662,790.138663 588.666662,797.174663 585.355996,807.107996 C581.217329,818.813329 571.813329,828.217329 560.107996,832.355996 C550.174663,835.666662 543.138663,835.666662 521.119997,835.666662 L457.546665,835.666662 C435.527999,835.666662 428.491999,835.666662 418.558666,832.355996 C406.853333,828.217329 397.457334,818.813329 393.310667,807.107996 C390,797.174663 390,790.138663 390,768.119997 L390,704.546665 C390,682.527999 390,675.492 393.310667,665.558666 C397.449334,653.853333 406.853333,644.449334 418.558666,640.310667 C428.491999,637 435.527999,637 457.546665,637 Z M466.852793,740.697724 C444.564794,741.944391 431.063461,753.421724 432.022128,770.577724 C432.998128,788.033723 450.959461,798.787056 468.93146,797.781723 C498.219459,796.14439 519.756792,770.345724 522.182125,740.859058 C518.204792,741.793724 514.018126,742.352391 510.070126,742.572391 C493.616793,743.492391 483.304793,739.777724 466.852793,740.697724 Z M511.813859,732.772322 C534.101858,731.525656 547.603191,720.048323 546.644525,702.892323 C545.668525,685.436323 527.707192,674.68299 509.735192,675.688324 C480.447193,677.325657 458.90986,703.124323 456.484527,732.610989 C460.46186,731.676322 464.648527,731.117656 468.596527,730.897656 C485.04986,729.977656 495.361859,733.692322 511.813859,732.772322 Z" id="logo-plain-blue"></path>
        </g>
    </g>
</svg>