<?xml version="1.0" standalone="no"?>
<!DOCTYPE svg PUBLIC "-//W3C//DTD SVG 20010904//EN"
 "http://www.w3.org/TR/2001/REC-SVG-20010904/DTD/svg10.dtd">
<svg version="1.0" xmlns="http://www.w3.org/2000/svg"
 width="256.000000pt" height="256.000000pt" viewBox="0 0 256.000000 256.000000"
 preserveAspectRatio="xMidYMid meet">
<metadata>
Created by potrace 1.11, written by Peter Selinger 2001-2013
</metadata>
<g transform="translate(0.000000,256.000000) scale(0.100000,-0.100000)"
fill="#000000" stroke="none">
<path d="M507 2549 c-224 -30 -399 -167 -466 -367 -39 -114 -43 -213 -39 -967
5 -801 3 -781 74 -916 63 -120 175 -216 302 -258 114 -39 213 -43 967 -39 639
4 727 6 784 21 209 56 354 203 408 413 16 63 18 135 18 844 0 708 -2 781 -18
844 -52 203 -206 359 -408 413 -57 15 -142 17 -809 19 -410 1 -775 -2 -813 -7z
m1184 -654 c59 -21 123 -75 152 -129 17 -33 22 -58 22 -126 0 -75 -3 -91 -28
-132 -49 -85 -144 -132 -291 -146 -81 -8 -169 -4 -386 17 -63 7 -145 9 -182 5
-79 -8 -80 -6 -52 87 67 225 249 387 495 439 63 13 216 5 270 -15z m-387 -661
c91 -10 180 -13 224 -10 70 7 72 6 72 -16 0 -48 -58 -188 -104 -252 -124 -174
-341 -277 -551 -263 -44 3 -101 13 -126 22 -59 21 -124 76 -150 128 -48 93
-31 231 36 300 100 103 259 127 599 91z"/>
</g>
</svg>
