<?xml version="1.0" encoding="UTF-8"?>
<svg width="343px" height="343px" viewBox="0 0 343 343" version="1.1" xmlns="http://www.w3.org/2000/svg" xmlns:xlink="http://www.w3.org/1999/xlink">
    <!-- Generator: Sketch 46.1 (44463) - http://www.bohemiancoding.com/sketch -->
    <title>status-logo-blue-circle-transparent</title>
    <desc>Created with Sketch.</desc>
    <defs></defs>
    <g id="Page-1" stroke="none" stroke-width="1" fill="none" fill-rule="evenodd">
        <g id="Icons" transform="translate(-193.000000, -130.000000)" fill="#4360DF">
            <path d="M364.5,473 C269.783165,473 193,396.216835 193,301.5 C193,206.783165 269.783165,130 364.5,130 C459.216835,130 536,206.783165 536,301.5 C536,396.216835 459.216835,473 364.5,473 Z M339,292.4 C360.024,292.4 369.976,296.4 391,296.4 C419.48,296.4 439,284.936 439,261.2 C439,237.464 422.736,226 399,226 C360.229225,225.997761 327.671974,255.180007 323.448,293.72 C328.581707,292.812832 333.786838,292.371038 339,292.4 Z M339,306.227219 C310.52,306.227219 291,317.691219 291,341.427219 C291,365.163219 307.264,376.627219 331,376.627219 C369.770775,376.629458 402.328026,347.447212 406.552,308.907219 C401.418293,309.814387 396.213162,310.256181 391,310.227219 C369.976,310.227219 360.024,306.227219 339,306.227219 Z" id="status-logo-blue-circle-transparent"></path>
        </g>
    </g>
</svg>