<?xml version="1.0" encoding="UTF-8"?>
<svg width="343px" height="343px" viewBox="0 0 343 343" version="1.1" xmlns="http://www.w3.org/2000/svg" xmlns:xlink="http://www.w3.org/1999/xlink">
    <!-- Generator: Sketch 46.1 (44463) - http://www.bohemiancoding.com/sketch -->
    <title>status-logo-white-circle-transparent</title>
    <desc>Created with Sketch.</desc>
    <defs></defs>
    <g id="Page-1" stroke="none" stroke-width="1" fill="none" fill-rule="evenodd">
        <g id="Icons" transform="translate(-922.000000, -130.000000)" fill="#FFFFFF">
            <path d="M1093.5,473 C998.783165,473 922,396.216835 922,301.5 C922,206.783165 998.783165,130 1093.5,130 C1188.21683,130 1265,206.783165 1265,301.5 C1265,396.216835 1188.21683,473 1093.5,473 Z M1068,292.4 C1089.024,292.4 1098.976,296.4 1120,296.4 C1148.48,296.4 1168,284.936 1168,261.2 C1168,237.464 1151.736,226 1128,226 C1089.22922,225.997761 1056.67197,255.180007 1052.448,293.72 C1057.58171,292.812832 1062.78684,292.371038 1068,292.4 Z M1068,306.227219 C1039.52,306.227219 1020,317.691219 1020,341.427219 C1020,365.163219 1036.264,376.627219 1060,376.627219 C1098.77078,376.629458 1131.32803,347.447212 1135.552,308.907219 C1130.41829,309.814387 1125.21316,310.256181 1120,310.227219 C1098.976,310.227219 1089.024,306.227219 1068,306.227219 Z" id="status-logo-white-circle-transparent"></path>
        </g>
    </g>
</svg>