
<svg width="10px" height="6px" viewBox="0 0 10 6" version="1.1" xmlns="http://www.w3.org/2000/svg" xmlns:xlink="http://www.w3.org/1999/xlink">
    <!-- Generator: Sketch 48.2 (47327) - http://www.bohemiancoding.com/sketch -->
    <desc>Created with Sketch.</desc>
    <defs></defs>
    <g id="Page-1" stroke="none" stroke-width="1" fill="none" fill-rule="evenodd" opacity="0.600000024">
        <g id="GRANTS-SITE-Copy-6" transform="translate(-1169.000000, -4678.000000)" fill="#FFFFFF">
            <g id="Group-18" transform="translate(0.000000, 4546.000000)">
                <g id="Group-16" transform="translate(99.000000, 20.000000)">
                    <g id="Group-17" transform="translate(604.000000, 0.000000)">
                        <g id="Group-14" transform="translate(363.000000, 0.000000)">
                            <g id="Group-10" transform="translate(45.000000, 101.000000)">
                                <g id="Group-6" transform="translate(51.000000, 0.000000)">
                                    <path d="M8.62758001,11.2810391 C8.26073833,10.91136 7.65331744,10.907744 7.28088479,11.2830574 C6.9058556,11.6609873 6.90755548,12.2659702 7.27888206,12.6401689 L11.3289814,16.7215948 C11.5120734,16.906103 11.7550949,16.9994232 11.9989189,16.9999558 C12.2459579,17.0023375 12.4883408,16.9083614 12.6736739,16.7215948 L16.7237732,12.6401689 C17.0906148,12.2704898 17.0942031,11.6583707 16.7217704,11.2830574 C16.3467413,10.9051274 15.7464018,10.9068404 15.3750752,11.2810391 L12.0013276,14.6808819 L8.62758001,11.2810391 Z" id="Combined-Shape"></path>
                                </g>
                            </g>
                        </g>
                    </g>
                </g>
            </g>
        </g>
    </g>
</svg>