
<svg width="52px" height="52px" viewBox="0 0 52 52" version="1.1" xmlns="http://www.w3.org/2000/svg" xmlns:xlink="http://www.w3.org/1999/xlink">
    <!-- Generator: Sketch 48.2 (47327) - http://www.bohemiancoding.com/sketch -->
    <desc>Created with Sketch.</desc>
    <defs></defs>
    <g id="Page-1" stroke="none" stroke-width="1" fill="none" fill-rule="evenodd">
        <g id="GRANTS-SITE-Copy-6" transform="translate(-99.000000, -4606.000000)">
            <g id="Group-18" transform="translate(0.000000, 4546.000000)">
                <g id="Group-16" transform="translate(99.000000, 20.000000)">
                    <g id="Group-15" transform="translate(0.000000, 40.000000)">
                        <g id="Group-19">
                            <g id="symbol">
                                <path d="M17.6799997,0 C11.9166667,0 10.075,-4.04584265e-09 7.475,0.866666667 C4.41133347,1.95 1.95,4.41133347 0.866666667,7.475 C0,10.075 0,11.9166667 0,17.6799997 C0,17.6799997 3.21877055e-08,34.3199987 0,34.3199987 C3.21877055e-08,40.0833333 2.58265087e-08,41.925 0.866666667,44.525 C1.95201009,47.5886665 4.41133347,50.05 7.475,51.1333333 C10.075,52 11.9166667,52 17.6799997,52 L34.3199987,52 C40.0833333,52 41.925,52 44.525,51.1333333 C47.5886665,50.05 50.05,47.5886665 51.1333333,44.525 C52,41.925 52,40.0833333 52,34.3199987 L52,17.6799997 C52,11.9166667 52,10.075 51.1333333,7.475 C50.05,4.44166667 47.5539991,1.95 44.5206657,0.866666667 C41.9206657,2.42792927e-09 40.0833333,9.14615062e-09 34.3199987,0 C37.353332,9.14615062e-09 17.6799997,0 17.6799997,0 Z" id="bg" fill="#FFFFFF" opacity="0.100000001"></path>
                                <path d="M18.8596338,24.5596973 C19.5805304,18.2196394 25.1370064,13.4189865 31.7539312,13.4193548 C35.8049033,13.4193548 38.5806452,15.305251 38.5806452,19.209964 C38.5806452,23.1146771 35.2492087,25.0005732 30.3885884,25.0005732 C26.8004675,25.0005732 25.1019811,24.3425494 21.5138602,24.3425494 C20.624141,24.337785 19.7357925,24.4104627 18.8596338,24.5596973 Z M21.6114116,27.0443176 C16.7507913,27.0443176 13.4193548,28.9302137 13.4193548,32.8349268 C13.4193548,36.7396398 16.1950967,38.625536 20.2460688,38.625536 C26.8629936,38.6259042 32.4194696,33.8252514 33.1403662,27.4851935 C32.2642075,27.6344281 31.375859,27.7071058 30.4861398,27.7023414 C26.8980189,27.7023414 25.1995325,27.0443176 21.6114116,27.0443176 L21.6114116,27.0443176 Z" id="Shape" fill="#FEFFFF"></path>
                            </g>
                        </g>
                    </g>
                </g>
            </g>
        </g>
    </g>
</svg>