
<svg width="41px" height="42px" viewBox="0 0 41 42" version="1.1" xmlns="http://www.w3.org/2000/svg" xmlns:xlink="http://www.w3.org/1999/xlink">
    <!-- Generator: Sketch 48.2 (47327) - http://www.bohemiancoding.com/sketch -->
    <desc>Created with Sketch.</desc>
    <defs>
        <polygon id="path-1" points="0.123470109 0.145860299 10.5064025 0.145860299 10.5064025 9.38727309 0.123470109 9.38727309"></polygon>
        <polygon id="path-3" points="0 0.145860299 10.3807349 0.145860299 10.3807349 9.38727309 0 9.38727309"></polygon>
    </defs>
    <g id="Page-1" stroke="none" stroke-width="1" fill="none" fill-rule="evenodd">
        <g id="GRANTS-SITE-Copy-8" transform="translate(-139.000000, -658.000000)">
            <g id="Group-31" transform="translate(40.000000, 591.000000)">
                <g id="Group-22" transform="translate(99.000000, 67.000000)">
                    <g id="Page-1" transform="translate(0.000000, 0.857143)">
                        <path d="M19.5453968,29.7436582 L19.5453968,20.7076101 L10.5244444,20.7076101 C10.5922201,23.9314713 11.0507412,27.0120943 11.8539404,29.7436582 L19.5453968,29.7436582 Z" id="Fill-1" fill="#D5E6F6"></path>
                        <path d="M19.5453968,39.5327103 L19.5453968,31.2496662 L12.0279365,31.2496662 C12.3891054,32.2370876 12.7988305,33.1711978 13.258656,34.0360037 C14.9920951,37.2941443 17.2028605,39.2173419 19.5453968,39.5327103" id="Fill-3" fill="#D5E6F6"></path>
                        <path d="M10.5244444,19.5781041 L19.5453968,19.5781041 L19.5453968,10.5420561 L11.7607404,10.5420561 C10.9907056,13.2848313 10.5648593,16.3649524 10.5244444,19.5781041" id="Fill-5" fill="#D5E6F6"></path>
                        <path d="M19.5453968,0.376502003 C17.2398014,0.693455553 15.0638989,2.62631968 13.3577954,5.90083663 C12.8543911,6.86743613 12.410767,7.91859006 12.0279365,9.03604806 L19.5453968,9.03604806 L19.5453968,0.376502003 Z" id="Fill-7" fill="#D5E6F6"></path>
                        <g id="Group-11" transform="translate(30.069841, 10.165554)">
                            <mask id="mask-2" fill="white">
                                <use xlink:href="#path-1"></use>
                            </mask>
                            <g id="Clip-10"></g>
                            <path d="M0.123470109,0.145860299 C0.870204501,2.97801105 1.28182722,6.1219739 1.32108507,9.38727309 L10.5064192,9.38727309 C10.413871,6.04872715 9.55036535,2.90835817 8.09114277,0.145860299 L0.123470109,0.145860299 Z" id="Fill-9" fill="#D5E6F6" mask="url(#mask-2)"></path>
                        </g>
                        <path d="M27.2364903,5.90083663 C25.5303868,2.62615224 23.3546532,0.693288119 21.0488889,0.376502003 L21.0488889,9.03604806 L28.5663492,9.03604806 C28.1835187,7.91859006 27.7398947,6.8672687 27.2364903,5.90083663" id="Fill-12" fill="#D5E6F6"></path>
                        <path d="M28.1278122,5.27114011 C28.7177873,6.42334046 29.2279324,7.68817202 29.6575809,9.03604806 L37.2114286,9.03604806 C34.2110553,4.34437026 29.3495939,0.978882793 23.68,0 C25.353596,1.03687945 26.8741984,2.82300854 28.1278122,5.27114011" id="Fill-14" fill="#D5E6F6"></path>
                        <path d="M30.0698413,29.7436582 L38.0795642,29.7436582 C39.5766742,27.0484059 40.4742012,23.9769862 40.5942857,20.7076101 L31.3617158,20.7076101 C31.2957113,23.9093832 30.8516504,26.9844842 30.0698413,29.7436582" id="Fill-16" fill="#D5E6F6"></path>
                        <path d="M27.3354863,34.0360037 C27.7954728,33.1713644 28.205017,32.2370876 28.5663492,31.2496662 L21.0488889,31.2496662 L21.0488889,39.5327103 C23.3915433,39.2175085 25.6020867,37.2943109 27.3354863,34.0360037" id="Fill-18" fill="#D5E6F6"></path>
                        <path d="M12.1533166,34.7323987 C11.614934,33.6598824 11.1436002,32.4910599 10.7389834,31.2496662 L3.38285714,31.2496662 C6.40818936,35.9720848 11.2654167,39.3409232 16.9142857,40.2857143 C15.1165788,39.2704011 13.4841707,37.3832096 12.1533166,34.7323987" id="Fill-20" fill="#D5E6F6"></path>
                        <g id="Group-24" transform="translate(0.000000, 10.165554)">
                            <mask id="mask-4" fill="white">
                                <use xlink:href="#path-3"></use>
                            </mask>
                            <g id="Clip-23"></g>
                            <path d="M2.4541307,0.145860299 C0.971542022,2.90835817 0.0941089032,6.04872715 -0.000101849462,9.38727309 L9.16380353,9.38727309 C9.20369457,6.1219739 9.62195636,2.97801105 10.3807349,0.145860299 L2.4541307,0.145860299 Z" id="Fill-22" fill="#D5E6F6" mask="url(#mask-4)"></path>
                        </g>
                        <path d="M29.614092,31.2496662 C29.2054185,32.485711 28.7293592,33.6493272 28.1855788,34.7173923 C26.8236133,37.3918054 25.1485215,39.2849771 23.304127,40.2857143 C29.1122182,39.4007607 34.11302,36.0175345 37.2114286,31.2496662 L29.614092,31.2496662 Z" id="Fill-25" fill="#D5E6F6"></path>
                        <path d="M10.5244444,29.7436582 C9.72995675,26.9844842 9.27869457,23.9093832 9.21161967,20.7076101 L0,20.7076101 C0.122031944,23.9769862 1.03411405,27.0484059 2.55550251,29.7436582 L10.5244444,29.7436582 Z" id="Fill-27" fill="#D5E6F6"></path>
                        <path d="M30.0698413,20.7076101 L21.0488889,20.7076101 L21.0488889,29.7436582 L28.740511,29.7436582 C29.5435445,27.0120943 30.0022314,23.9314713 30.0698413,20.7076101" id="Fill-29" fill="#D5E6F6"></path>
                        <path d="M28.8335453,10.5420561 L21.0488889,10.5420561 L21.0488889,19.5781041 L30.0698413,19.5781041 C30.0294264,16.3649524 29.6034145,13.2848313 28.8335453,10.5420561" id="Fill-31" fill="#D5E6F6"></path>
                        <path d="M10.898716,9.03604806 C11.3358482,7.68205092 11.8548791,6.41164426 12.4551304,5.25404256 C13.7141322,2.82654082 15.2374819,1.04749867 16.9142857,0 C11.2469975,1.0344957 6.39377889,4.3875722 3.38285714,9.03604806 L10.898716,9.03604806 Z" id="Fill-33" fill="#D5E6F6"></path>
                    </g>
                </g>
            </g>
        </g>
    </g>
</svg>