
<svg width="376px" height="378px" viewBox="0 0 376 378" version="1.1" xmlns="http://www.w3.org/2000/svg" xmlns:xlink="http://www.w3.org/1999/xlink">
    <!-- Generator: Sketch 48.2 (47327) - http://www.bohemiancoding.com/sketch -->
    <desc>Created with Sketch.</desc>
    <defs>
        <filter x="-5.6%" y="-3.1%" width="111.2%" height="109.5%" filterUnits="objectBoundingBox" id="filter-1">
            <feOffset dx="0" dy="5" in="SourceAlpha" result="shadowOffsetOuter1"></feOffset>
            <feGaussianBlur stdDeviation="4" in="shadowOffsetOuter1" result="shadowBlurOuter1"></feGaussianBlur>
            <feColorMatrix values="0 0 0 0 0   0 0 0 0 0   0 0 0 0 0  0 0 0 0.275532156 0" type="matrix" in="shadowBlurOuter1" result="shadowMatrixOuter1"></feColorMatrix>
            <feMerge>
                <feMergeNode in="shadowMatrixOuter1"></feMergeNode>
                <feMergeNode in="SourceGraphic"></feMergeNode>
            </feMerge>
        </filter>
        <ellipse id="path-2" cx="128.659787" cy="153.596237" rx="40.2316389" ry="40.2667399"></ellipse>
        <filter x="-9.9%" y="-6.2%" width="117.4%" height="117.4%" filterUnits="objectBoundingBox" id="filter-3">
            <feOffset dx="-1" dy="2" in="SourceAlpha" result="shadowOffsetOuter1"></feOffset>
            <feGaussianBlur stdDeviation="2" in="shadowOffsetOuter1" result="shadowBlurOuter1"></feGaussianBlur>
            <feColorMatrix values="0 0 0 0 0   0 0 0 0 0   0 0 0 0 0  0 0 0 0.234516531 0" type="matrix" in="shadowBlurOuter1"></feColorMatrix>
        </filter>
        <filter x="-8.6%" y="-8.5%" width="117.2%" height="124.6%" filterUnits="objectBoundingBox" id="filter-4">
            <feOffset dx="0" dy="5" in="SourceAlpha" result="shadowOffsetOuter1"></feOffset>
            <feGaussianBlur stdDeviation="4.5" in="shadowOffsetOuter1" result="shadowBlurOuter1"></feGaussianBlur>
            <feColorMatrix values="0 0 0 0 0   0 0 0 0 0   0 0 0 0 0  0 0 0 0.200747283 0" type="matrix" in="shadowBlurOuter1" result="shadowMatrixOuter1"></feColorMatrix>
            <feMerge>
                <feMergeNode in="shadowMatrixOuter1"></feMergeNode>
                <feMergeNode in="SourceGraphic"></feMergeNode>
            </feMerge>
        </filter>
    </defs>
    <g id="Page-1" stroke="none" stroke-width="1" fill="none" fill-rule="evenodd" opacity="0.503736413">
        <g id="Group-35" transform="translate(-11.000000, 1.000000)">
            <g id="Group-21" transform="translate(68.000000, 0.000000)">
                <g id="Group-9" filter="url(#filter-1)" transform="translate(129.000000, 215.203662) rotate(-360.000000) translate(-129.000000, -215.203662) translate(0.000000, 62.203662)">
                    <g id="Group-2" transform="translate(129.140139, 152.775465) rotate(-29.000000) translate(-129.140139, -152.775465) translate(57.140139, 18.275465)">
                        <rect id="Rectangle" fill="#423F3F" transform="translate(71.650187, 134.671635) rotate(-360.000000) translate(-71.650187, -134.671635) " x="0.239027795" y="0.78472447" width="142.822318" height="267.77382" rx="10"></rect>
                        <rect id="Rectangle-5" fill="#FFFFFF" x="6.51481803" y="36.2400659" width="131.32979" height="199.320363"></rect>
                        <rect id="Rectangle-6" fill="#74797F" x="53.0696846" y="14.093359" width="36.208475" height="10.066685" rx="5.03334249"></rect>
                        <rect id="Rectangle-6-Copy" fill="#74797F" x="61.5922771" y="246.633782" width="20.1158194" height="10.066685" rx="5.03334249"></rect>
                    </g>
                    <g id="Oval" transform="translate(128.659787, 153.596237) rotate(-43.000000) translate(-128.659787, -153.596237) ">
                        <use fill="black" fill-opacity="1" filter="url(#filter-3)" xlink:href="#path-2"></use>
                        <use fill="#4A4A4A" fill-rule="evenodd" xlink:href="#path-2"></use>
                    </g>
                    <g id="Group-5" transform="translate(127.533044, 152.985191) rotate(-28.000000) translate(-127.533044, -152.985191) translate(115.533044, 137.985191)" stroke="#F4F2F7" stroke-linecap="round" stroke-width="3">
                        <path d="M12.6971069,1.21374595 L12.6971069,29.2945281" id="Line"></path>
                        <polyline id="Rectangle-8" transform="translate(11.877099, 11.876975) rotate(-45.000000) translate(-11.877099, -11.876975) " points="3.67701967 3.67449117 20.0771782 3.67449117 20.0771782 20.0794593"></polyline>
                    </g>
                </g>
                <g id="Group" filter="url(#filter-4)" transform="translate(200.997683, 97.930999) rotate(24.000000) translate(-200.997683, -97.930999) translate(107.997683, 32.930999)">
                    <rect id="Rectangle-2" fill="#9B9B9B" x="0" y="0" width="185.321791" height="129.599248" rx="6"></rect>
                    <rect id="Rectangle-3" fill="#FFFFFF" x="22.1580403" y="26.3248473" width="32.2298768" height="32.399812" rx="4"></rect>
                    <rect id="Rectangle-4" fill="#B9B8B8" x="22.1580403" y="72.899577" width="138.991344" height="10.1249413" rx="5.06247063"></rect>
                    <rect id="Rectangle-4" fill="#B9B8B8" x="22.1580403" y="93.1494596" width="58.4166516" height="10.1249413" rx="5.06247063"></rect>
                </g>
            </g>
            <g id="Group-3" transform="translate(37.000000, 112.500000) rotate(-60.000000) translate(-37.000000, -112.500000) translate(0.000000, 92.000000)" stroke="#E7E4EC" stroke-linecap="round" stroke-width="3">
                <path d="M52.703149,40.8901798 C49.3100443,35.4831202 43.2696856,31.8849068 36.3833333,31.8849068 C29.8583434,31.8849068 24.0928893,35.1153949 20.6192871,40.0541725" id="Oval-2"></path>
                <path d="M62.3293825,30.2601981 C56.9001875,21.6085405 47.2352089,15.8511578 36.2165839,15.8511578 C25.7761628,15.8511578 16.5510499,21.0201553 10.9930536,28.9225304" id="Oval-2-Copy"></path>
                <path d="M73.0704144,20.4906508 C65.3693329,8.21864346 51.659973,0.0520417622 36.0305235,0.0520417622 C21.2212315,0.0520417622 8.13580239,7.38404423 0.252021679,18.5932262" id="Oval-2-Copy-2"></path>
            </g>
        </g>
    </g>
</svg>