<?xml version="1.0" encoding="UTF-8"?>
<svg width="52px" height="52px" viewBox="0 0 52 52" version="1.1" xmlns="http://www.w3.org/2000/svg" xmlns:xlink="http://www.w3.org/1999/xlink">
    <!-- Generator: Sketch 48.2 (47327) - http://www.bohemiancoding.com/sketch -->
    <title>Group 5</title>
    <desc>Created with Sketch.</desc>
    <defs></defs>
    <g id="GRANTS-SITE-Copy-8" stroke="none" stroke-width="1" fill="none" fill-rule="evenodd" transform="translate(-40.000000, -30.000000)">
        <g id="Group-11" transform="translate(40.000000, 30.000000)">
            <g id="Group-5">
                <circle id="Oval-2" fill="#314F7A" cx="26" cy="26" r="26"></circle>
                <path d="M21.4770731,24.3432845 C20.6650065,24.338773 19.854191,24.4075922 19.0545014,24.548904 C19.7124798,18.5454385 24.7839995,13.9996513 30.8234145,14 C34.5208272,14 37.0543088,15.7857743 37.0543088,19.4831869 C37.0543088,23.1805996 34.0136324,24.9663739 29.5772357,24.9663739 C26.3022776,24.9663739 24.7520311,24.3432845 21.4770731,24.3432845 Z M21.4770731,26.497183 C24.7520311,26.497183 26.3022776,27.1202724 29.5772357,27.1202724 C30.3893022,27.1247838 31.2001177,27.0559646 31.9998073,26.9146529 C31.341829,32.9181184 26.2703093,37.4639056 20.2308943,37.4635569 C16.5334816,37.4635569 14,35.6777826 14,31.9803699 C14,28.2829572 17.0406764,26.497183 21.4770731,26.497183 Z" id="Combined-Shape-Copy" fill="#FFFFFF"></path>
            </g>
        </g>
    </g>
</svg>