
<svg width="134px" height="105px" viewBox="0 0 134 105" version="1.1" xmlns="http://www.w3.org/2000/svg" xmlns:xlink="http://www.w3.org/1999/xlink">
    <!-- Generator: Sketch 48.2 (47327) - http://www.bohemiancoding.com/sketch -->
    <desc>Created with Sketch.</desc>
    <defs>
        <circle id="path-1" cx="12" cy="12" r="12"></circle>
        <filter x="-54.2%" y="-33.3%" width="208.3%" height="208.3%" filterUnits="objectBoundingBox" id="filter-2">
            <feOffset dx="0" dy="5" in="SourceAlpha" result="shadowOffsetOuter1"></feOffset>
            <feGaussianBlur stdDeviation="3.5" in="shadowOffsetOuter1" result="shadowBlurOuter1"></feGaussianBlur>
            <feColorMatrix values="0 0 0 0 0   0 0 0 0 0   0 0 0 0 0  0 0 0 0.145125679 0" type="matrix" in="shadowBlurOuter1"></feColorMatrix>
        </filter>
        <circle id="path-3" cx="12" cy="12" r="12"></circle>
        <filter x="-54.2%" y="-33.3%" width="208.3%" height="208.3%" filterUnits="objectBoundingBox" id="filter-4">
            <feOffset dx="0" dy="5" in="SourceAlpha" result="shadowOffsetOuter1"></feOffset>
            <feGaussianBlur stdDeviation="3.5" in="shadowOffsetOuter1" result="shadowBlurOuter1"></feGaussianBlur>
            <feColorMatrix values="0 0 0 0 0   0 0 0 0 0   0 0 0 0 0  0 0 0 0.145125679 0" type="matrix" in="shadowBlurOuter1"></feColorMatrix>
        </filter>
        <circle id="path-5" cx="12" cy="12" r="12"></circle>
        <filter x="-54.2%" y="-33.3%" width="208.3%" height="208.3%" filterUnits="objectBoundingBox" id="filter-6">
            <feOffset dx="0" dy="5" in="SourceAlpha" result="shadowOffsetOuter1"></feOffset>
            <feGaussianBlur stdDeviation="3.5" in="shadowOffsetOuter1" result="shadowBlurOuter1"></feGaussianBlur>
            <feColorMatrix values="0 0 0 0 0   0 0 0 0 0   0 0 0 0 0  0 0 0 0.145125679 0" type="matrix" in="shadowBlurOuter1"></feColorMatrix>
        </filter>
    </defs>
    <g id="Page-1" stroke="none" stroke-width="1" fill="none" fill-rule="evenodd">
        <g id="GRANTS-SITE-Copy-6" transform="translate(-478.000000, -1864.000000)">
            <g id="symbol-copy-2" transform="translate(492.000000, 1933.000000)">
                <g id="Oval">
                    <use fill="black" fill-opacity="1" filter="url(#filter-2)" xlink:href="#path-1"></use>
                    <use fill="#44318D" fill-rule="evenodd" xlink:href="#path-1"></use>
                </g>
            </g>
            <g id="symbol-copy-2" transform="translate(492.000000, 1866.000000)">
                <g id="Oval">
                    <use fill="black" fill-opacity="1" filter="url(#filter-4)" xlink:href="#path-3"></use>
                    <use fill="#8265A7" fill-rule="evenodd" xlink:href="#path-3"></use>
                </g>
            </g>
            <g id="symbol-copy-2" transform="translate(581.000000, 1907.000000)">
                <g id="Oval">
                    <use fill="black" fill-opacity="1" filter="url(#filter-6)" xlink:href="#path-5"></use>
                    <use fill="#A4B3B6" fill-rule="evenodd" xlink:href="#path-5"></use>
                </g>
            </g>
            <g id="Group-3" transform="translate(564.912602, 1913.748694) rotate(-83.000000) translate(-564.912602, -1913.748694) translate(544.412602, 1902.248694)" stroke="#E7E4EC" stroke-linecap="round" stroke-width="2.69999993">
                <path d="M29.3938295,22.2637349 C27.5446852,19.319719 24.2528636,17.3605769 20.5,17.3605769 C16.9440684,17.3605769 13.802062,19.1195012 11.9090488,21.8085487" id="Oval-2"></path>
                <path d="M34.6398496,16.4759615 C31.6810947,11.7653387 26.4139596,8.63058019 20.4091264,8.63058019 C14.7193975,8.63058019 9.6919767,11.444977 6.66302876,15.7476331" id="Oval-2-Copy"></path>
                <path d="M40.4934026,11.1566743 C36.296535,4.47485681 28.8253287,0.0283355075 20.3077288,0.0283355075 C12.2370911,0.0283355075 5.10590915,4.02043728 0.809475705,10.1235715" id="Oval-2-Copy-2"></path>
            </g>
            <g id="Group-3" transform="translate(499.900986, 1902.241131) rotate(-172.000000) translate(-499.900986, -1902.241131) translate(479.400986, 1890.741131)" stroke="#E7E4EC" stroke-linecap="round" stroke-width="2.69999993">
                <path d="M29.3938295,22.2637349 C27.5446852,19.319719 24.2528636,17.3605769 20.5,17.3605769 C16.9440684,17.3605769 13.802062,19.1195012 11.9090488,21.8085487" id="Oval-2"></path>
                <path d="M34.6398496,16.4759615 C31.6810947,11.7653387 26.4139596,8.63058019 20.4091264,8.63058019 C14.7193975,8.63058019 9.6919767,11.444977 6.66302876,15.7476331" id="Oval-2-Copy"></path>
                <path d="M40.4934026,11.1566743 C36.296535,4.47485681 28.8253287,0.0283355075 20.3077288,0.0283355075 C12.2370911,0.0283355075 5.10590915,4.02043728 0.809475705,10.1235715" id="Oval-2-Copy-2"></path>
            </g>
            <g id="Group-3" transform="translate(529.579835, 1941.589776) rotate(-276.000000) translate(-529.579835, -1941.589776) translate(509.079835, 1930.089776)" stroke="#E7E4EC" stroke-linecap="round" stroke-width="2.69999993">
                <path d="M29.3938295,22.2637349 C27.5446852,19.319719 24.2528636,17.3605769 20.5,17.3605769 C16.9440684,17.3605769 13.802062,19.1195012 11.9090488,21.8085487" id="Oval-2"></path>
                <path d="M34.6398496,16.4759615 C31.6810947,11.7653387 26.4139596,8.63058019 20.4091264,8.63058019 C14.7193975,8.63058019 9.6919767,11.444977 6.66302876,15.7476331" id="Oval-2-Copy"></path>
                <path d="M40.4934026,11.1566743 C36.296535,4.47485681 28.8253287,0.0283355075 20.3077288,0.0283355075 C12.2370911,0.0283355075 5.10590915,4.02043728 0.809475705,10.1235715" id="Oval-2-Copy-2"></path>
            </g>
        </g>
    </g>
</svg>