
<svg width="81px" height="101px" viewBox="0 0 81 101" version="1.1" xmlns="http://www.w3.org/2000/svg" xmlns:xlink="http://www.w3.org/1999/xlink">
    <!-- Generator: Sketch 48.2 (47327) - http://www.bohemiancoding.com/sketch -->
    <desc>Created with Sketch.</desc>
    <defs>
        <circle id="path-1" cx="93.5" cy="74.5" r="33.5"></circle>
        <filter x="-19.4%" y="-11.9%" width="138.8%" height="138.8%" filterUnits="objectBoundingBox" id="filter-2">
            <feOffset dx="0" dy="5" in="SourceAlpha" result="shadowOffsetOuter1"></feOffset>
            <feGaussianBlur stdDeviation="3.5" in="shadowOffsetOuter1" result="shadowBlurOuter1"></feGaussianBlur>
            <feColorMatrix values="0 0 0 0 0   0 0 0 0 0   0 0 0 0 0  0 0 0 0.145125679 0" type="matrix" in="shadowBlurOuter1"></feColorMatrix>
        </filter>
    </defs>
    <g id="Page-1" stroke="none" stroke-width="1" fill="none" fill-rule="evenodd">
        <g id="GRANTS-SITE-Copy-8" transform="translate(-900.000000, -1865.000000)">
            <g id="symbol-copy-2" transform="translate(847.000000, 1846.000000)">
                <path d="M57.8273583,54.5798492 L57.8273583,36.7733976 C57.8273583,28.9345173 64.1820264,22.5798492 72.0209067,22.5798492 L72.0209067,22.5798492 C79.859787,22.5798492 86.2144551,28.9345173 86.2144551,36.7733976 L86.2144551,54.5798492" id="Rectangle-11" stroke="#62A4E1" stroke-width="6" stroke-linecap="round" transform="translate(72.020907, 38.579849) rotate(-30.000000) translate(-72.020907, -38.579849) "></path>
                <g id="Oval">
                    <use fill="black" fill-opacity="1" filter="url(#filter-2)" xlink:href="#path-1"></use>
                    <use fill="#7EBDFE" fill-rule="evenodd" xlink:href="#path-1"></use>
                </g>
                <path d="M96.549516,74.7855052 L101.986709,85.0113778 L96.6890233,87.8282072 L91.2518304,77.6023346 C88.1060209,77.9308857 84.9305189,76.3639492 83.3543257,73.3995607 C81.2800698,69.4984528 82.761026,64.6544634 86.6621339,62.5802075 C90.5632418,60.5059516 95.4072313,61.9869078 97.4814871,65.8880157 C99.0576804,68.8524042 98.5810115,72.3612343 96.549516,74.7855052 Z" id="Combined-Shape" fill="#62A4E1"></path>
            </g>
        </g>
    </g>
</svg>