
<svg width="32px" height="32px" viewBox="0 0 32 32" version="1.1" xmlns="http://www.w3.org/2000/svg" xmlns:xlink="http://www.w3.org/1999/xlink">
    <!-- Generator: Sketch 48.2 (47327) - http://www.bohemiancoding.com/sketch -->
    <desc>Created with Sketch.</desc>
    <defs></defs>
    <g id="Page-1" stroke="none" stroke-width="1" fill="none" fill-rule="evenodd">
        <g id="GRANTS-SITE-Copy-6" transform="translate(-743.000000, -4663.000000)">
            <g id="Group-18" transform="translate(0.000000, 4546.000000)">
                <g id="Group-16" transform="translate(99.000000, 20.000000)">
                    <g id="Group-17" transform="translate(604.000000, 0.000000)">
                        <g id="Group-12">
                            <g id="Group-2" transform="translate(40.000000, 97.000000)">
                                <circle id="Oval-3" fill="#FEFFFE" opacity="0.100000001" cx="16" cy="16" r="16"></circle>
                                <g id="icon_fb" transform="translate(4.000000, 4.000000)" fill="#FFFFFF">
                                    <path d="M13.2034286,13.0698692 L15.552,13.0698692 L15.9051429,10.4367263 L13.2034286,10.4367263 L13.2034286,8.74758345 C13.2034286,7.98301202 13.416,7.46186917 14.552,7.46186917 L16,7.46186917 L16,5.09958345 C15.2985259,5.03061768 14.5939938,4.99743181 13.8891429,5.00015488 C11.8011429,5.00015488 10.3714286,6.22529774 10.3714286,8.48586917 L10.3714286,10.4367263 L8,10.4367263 L8,13.0698692 L10.3714286,13.0698692 L10.3714286,19.8572977 L13.2034286,19.8572977 L13.2034286,13.0698692 L13.2034286,13.0698692 Z" id="Shape"></path>
                                </g>
                            </g>
                        </g>
                    </g>
                </g>
            </g>
        </g>
    </g>
</svg>