
<svg width="32px" height="32px" viewBox="0 0 32 32" version="1.1" xmlns="http://www.w3.org/2000/svg" xmlns:xlink="http://www.w3.org/1999/xlink">
    <!-- Generator: Sketch 48.2 (47327) - http://www.bohemiancoding.com/sketch -->
    <desc>Created with Sketch.</desc>
    <defs></defs>
    <g id="Page-1" stroke="none" stroke-width="1" fill="none" fill-rule="evenodd">
        <g id="GRANTS-SITE-Copy-6" transform="translate(-743.000000, -4751.000000)">
            <g id="Group-18" transform="translate(0.000000, 4546.000000)">
                <g id="Group-16" transform="translate(99.000000, 20.000000)">
                    <g id="Group-17" transform="translate(604.000000, 0.000000)">
                        <g id="Group-12">
                            <g id="Group-2" transform="translate(40.000000, 97.000000)" fill="#FEFFFE" opacity="0.100000001">
                                <circle id="Oval-3-Copy-2" cx="16" cy="104" r="16"></circle>
                            </g>
                            <g id="icon_sl" transform="translate(50.000000, 193.000000)" fill="#FFFFFF" fill-rule="nonzero">
                                <path d="M7.632,0.316 L2.893,0.316 C2.26454967,0.315201911 1.66162411,0.564567977 1.21733608,1.00904362 C0.773048058,1.45351927 0.523936574,2.05655007 0.525,2.685 L0.525,14.506 C0.523936574,15.1344499 0.773048058,15.7374807 1.21733608,16.1819564 C1.66162411,16.626432 2.26454967,16.8757981 2.893,16.875 C3.521542,16.8757975 4.12456988,16.6264632 4.56901655,16.1820165 C5.01346322,15.7375699 5.26279747,15.134542 5.262,14.506 L5.262,12.137 L7.632,12.137 C10.886,12.137 13.542,9.481 13.542,6.226 C13.542,2.972 10.886,0.316 7.632,0.316 Z" id="Shape"></path>
                                <path d="M2.905,16.277 C1.92690371,16.277 1.134,15.4840963 1.134,14.506 L1.134,2.673 C1.13288058,1.69895575 1.91897391,0.907052743 2.893,0.901 L7.632,0.901 C10.5704061,0.907051216 12.9509488,3.28759385 12.957,6.226 C12.9514952,9.16447108 10.5704721,11.5450471 7.632,11.55 L4.676,11.55 L4.676,14.506 C4.676,15.473 3.882,16.277 2.905,16.277 Z" id="Shape"></path>
                                <path d="M2.905,15.68 C2.59054512,15.6800001 2.28898409,15.555015 2.06672471,15.3325681 C1.84446534,15.1101211 1.71973464,14.8084548 1.72,14.494 L1.72,2.673 C1.72,2.028 2.237,1.5 2.881,1.488 L7.632,1.488 C10.240661,1.49240554 12.3541464,3.60633814 12.358,6.215 C12.3503116,8.82190644 10.2389064,10.9333116 7.632,10.941 L4.09,10.941 L4.09,14.482 C4.09,15.148 3.561,15.68 2.905,15.68 Z" id="Shape"></path>
                                <path d="M2.905,15.094 C2.74588913,15.0945375 2.59316897,15.0314316 2.48084794,14.9187349 C2.3685269,14.8060382 2.30593123,14.6531082 2.307,14.494 L2.307,2.673 C2.307,2.351 2.559,2.086 2.881,2.075 L7.632,2.075 C9.91754487,2.07720506 11.7697949,3.92945513 11.772,6.215 C11.7692449,8.50031671 9.91731671,10.3522449 7.632,10.355 L3.502,10.355 L3.502,14.494 C3.502,14.828 3.238,15.094 2.905,15.094 Z" id="Shape"></path>
                                <path d="M2.905,9.768 L7.632,9.768 C9.59358262,9.76689799 11.1837938,8.17758169 11.186,6.216 C11.187063,5.27309511 10.8129662,4.36850353 10.1462313,3.70176867 C9.47949647,3.03503381 8.57490489,2.66093697 7.632,2.662 L2.905,2.66199774 L2.905,9.768 Z" id="Shape"></path>
                                <path d="M3.502,9.182 L3.502,3.25999932 L7.642,3.26 C8.42605084,3.25946858 9.17812708,3.5707647 9.73244107,4.12526628 C10.2867551,4.67976786 10.5977967,5.43194939 10.597,6.216 C10.5975308,6.99996927 10.2864038,7.75199631 9.73214745,8.3064402 C9.17789113,8.86088409 8.42596941,9.17226557 7.642,9.172 L3.502,9.172 L3.502,9.182 Z" id="Shape"></path>
                                <path d="M4.09,8.59500191 L4.09,3.85699809 L7.632,3.857 C8.260542,3.85620253 8.86356988,4.10553678 9.30801655,4.54998345 C9.75246322,4.99443012 10.0017975,5.597458 10.001,6.226 C10.0017975,6.854542 9.75246322,7.45756988 9.30801655,7.90201655 C8.86356988,8.34646322 8.260542,8.59579747 7.632,8.595 L4.09,8.59500191 Z" id="Shape"></path>
                                <path d="M4.676,8.01 L4.676,4.444 L7.632,4.444 C8.61672371,4.444 9.415,5.24227629 9.415,6.227 C9.415,7.21172371 8.61672371,8.01 7.632,8.01 L4.676,8.01 Z" id="Shape"></path>
                                <path d="M5.262,7.411 L5.262,5.031 L7.632,5.031 C8.286,5.031 8.827,5.561 8.827,6.226 C8.827,6.894 8.299,7.422 7.632,7.422 L5.262,7.422 L5.262,7.411 Z" id="Shape"></path>
                                <path d="M5.861,6.825 L5.861,5.617 L7.632,5.617 C7.965,5.617 8.231,5.882 8.231,6.216 C8.23180539,6.37501863 8.16892302,6.52774276 8.05638453,6.64009337 C7.94384604,6.75244398 7.79101706,6.81507109 7.632,6.814 L5.861,6.814 L5.861,6.825 Z" id="Shape"></path>
                                <circle id="Oval" cx="2.827" cy="2.678" r="2.369"></circle>
                                <path d="M13.036,13.137 C13.7860027,14.203738 13.529238,15.6764973 12.4625,16.4265 C11.395762,17.1765027 9.92300269,16.919738 9.173,15.853 L5.631,10.791 C4.92603039,9.7242143 5.19797798,8.29013794 6.24455569,7.55550267 C7.2911334,6.8208674 8.73227797,7.052455 9.496,8.078 L13.036,13.137 Z" id="Shape"></path>
                            </g>
                        </g>
                    </g>
                </g>
            </g>
        </g>
    </g>
</svg>