<?xml version="1.0" encoding="UTF-8"?>
<svg width="343px" height="343px" viewBox="0 0 343 343" version="1.1" xmlns="http://www.w3.org/2000/svg" xmlns:xlink="http://www.w3.org/1999/xlink">
    <!-- Generator: Sketch 46.1 (44463) - http://www.bohemiancoding.com/sketch -->
    <title>status-logo-white-rectangle-transparent</title>
    <desc>Created with Sketch.</desc>
    <defs></defs>
    <g id="Page-1" stroke="none" stroke-width="1" fill="none" fill-rule="evenodd">
        <g id="Icons" transform="translate(-922.000000, -573.000000)" fill="#FFFFFF">
            <path d="M1038.62,573 C1038.62,573 1168.38832,573 1148.37999,573 C1186.39583,573 1198.51516,573 1215.66516,578.716667 C1235.67349,585.8625 1252.1375,602.297917 1259.28333,622.30625 C1265,639.45625 1265,651.604167 1265,689.619998 L1265,799.379991 C1265,837.395833 1265,849.54375 1259.28333,866.69375 C1252.1375,886.902166 1235.90217,903.1375 1215.69375,910.283333 C1198.54375,916 1186.39583,916 1148.37999,916 L1038.62,916 C1000.60417,916 988.45625,916 971.30625,910.283333 C951.097834,903.1375 934.875759,886.902166 927.716667,866.69375 C922,849.54375 922,837.395833 922,799.379991 C922,799.379991 922,689.619998 922,689.619998 C922,651.604167 922,639.45625 927.716667,622.30625 C934.8625,602.097834 951.097834,585.8625 971.30625,578.716667 C988.45625,573 1000.60417,573 1038.62,573 Z M1063.81081,734.821622 C1087.81795,734.821622 1099.18205,739.389189 1123.18919,739.389189 C1155.71027,739.389189 1178,726.298541 1178,699.194595 C1178,672.090649 1159.42827,659 1132.32432,659 C1088.05229,658.997444 1050.87543,692.320413 1046.05211,736.328919 C1051.91425,735.293031 1057.85794,734.78855 1063.81081,734.821622 Z M1063.81081,750.610811 C1031.28973,750.610811 1009,763.701459 1009,790.805405 C1009,817.909351 1027.57173,831 1054.67568,831 C1098.94771,831.002556 1136.12457,797.679587 1140.94789,753.671081 C1135.08575,754.706969 1129.14206,755.21145 1123.18919,755.178378 C1099.18205,755.178378 1087.81795,750.610811 1063.81081,750.610811 Z" id="status-logo-white-rectangle-transparent"></path>
        </g>
    </g>
</svg>