<?xml version="1.0" encoding="UTF-8"?>
<svg width="343px" height="343px" viewBox="0 0 343 343" version="1.1" xmlns="http://www.w3.org/2000/svg" xmlns:xlink="http://www.w3.org/1999/xlink">
    <!-- Generator: Sketch 46.1 (44463) - http://www.bohemiancoding.com/sketch -->
    <title>status-logo-white-circle</title>
    <desc>Created with Sketch.</desc>
    <defs></defs>
    <g id="Page-1" stroke="none" stroke-width="1" fill="none" fill-rule="evenodd">
        <g id="Icons" transform="translate(-922.000000, -1016.000000)">
            <g id="status-logo-white-circle" transform="translate(922.000000, 1016.000000)">
                <circle id="bg" fill="#FFFFFF" cx="171.5" cy="171.5" r="171.5"></circle>
                <path d="M146,162.4 C140.786838,162.371038 135.581707,162.812832 130.448,163.72 C134.671974,125.180007 167.229225,95.9977612 206,96 C229.736,96 246,107.464 246,131.2 C246,154.936 226.48,166.4 198,166.4 C176.976,166.4 167.024,162.4 146,162.4 Z M146,176.227219 C167.024,176.227219 176.976,180.227219 198,180.227219 C203.213162,180.256181 208.418293,179.814387 213.552,178.907219 C209.328026,217.447212 176.770775,246.629458 138,246.627219 C114.264,246.627219 98,235.163219 98,211.427219 C98,187.691219 117.52,176.227219 146,176.227219 Z" id="logo" fill="#4360DF"></path>
            </g>
        </g>
    </g>
</svg>