<?xml version="1.0" encoding="UTF-8"?>
<svg width="343px" height="343px" viewBox="0 0 343 343" version="1.1" xmlns="http://www.w3.org/2000/svg" xmlns:xlink="http://www.w3.org/1999/xlink">
    <!-- Generator: Sketch 46.1 (44463) - http://www.bohemiancoding.com/sketch -->
    <title>status-logo-blue-rectangle</title>
    <desc>Created with Sketch.</desc>
    <defs></defs>
    <g id="Page-1" stroke="none" stroke-width="1" fill="none" fill-rule="evenodd">
        <g id="Icons" transform="translate(-193.000000, -1459.000000)">
            <g id="status-logo-blue-rectangle" transform="translate(193.000000, 1459.000000)">
                <path d="M116.619998,0 C78.6041667,0 66.45625,-2.66870006e-08 49.30625,5.71666667 C29.0978342,12.8625 12.8625,29.0978342 5.71666667,49.30625 C0,66.45625 0,78.6041667 0,116.619998 C0,116.619998 2.12315058e-07,226.379991 0,226.379991 C2.12315058e-07,264.395833 1.70355625e-07,276.54375 5.71666667,293.69375 C12.8757589,313.902166 29.0978342,330.1375 49.30625,337.283333 C66.45625,343 78.6041667,343 116.619998,343 L226.379991,343 C264.395833,343 276.54375,343 293.69375,337.283333 C313.902166,330.1375 330.1375,313.902166 337.283333,293.69375 C343,276.54375 343,264.395833 343,226.379991 L343,116.619998 C343,78.6041667 343,66.45625 337.283333,49.30625 C330.1375,29.2979167 313.673494,12.8625 293.665161,5.71666667 C276.515161,1.6014995e-08 264.395833,6.03294166e-08 226.379991,0 C246.388325,6.03294166e-08 116.619998,0 116.619998,0 Z" id="status-logo-blue-rectangle-transparent-copy" fill="#4360DF"></path>
                <path d="M141.810811,161.821622 C135.857943,161.78855 129.914246,162.293031 124.052108,163.328919 C128.87543,119.320413 166.052291,85.9974436 210.324324,86 C237.42827,86 256,99.0906486 256,126.194595 C256,153.298541 233.71027,166.389189 201.189189,166.389189 C177.182054,166.389189 165.817946,161.821622 141.810811,161.821622 Z" id="Shape" fill="#FFFFFF"></path>
                <path d="M141.810811,177.610811 C109.28973,177.610811 87,190.701459 87,217.805405 C87,244.909351 105.57173,258 132.675676,258 C176.947709,258.002556 214.12457,224.679587 218.947892,180.671081 C213.085754,181.706969 207.142057,182.21145 201.189189,182.178378 C177.182054,182.178378 165.817946,177.610811 141.810811,177.610811 Z" id="Shape" fill="#FFFFFF"></path>
            </g>
        </g>
    </g>
</svg>