<?xml version="1.0" encoding="UTF-8"?>
<svg width="343px" height="343px" viewBox="0 0 343 343" version="1.1" xmlns="http://www.w3.org/2000/svg" xmlns:xlink="http://www.w3.org/1999/xlink">
    <!-- Generator: Sketch 46.1 (44463) - http://www.bohemiancoding.com/sketch -->
    <title>status-logo-blue-rectangle-transparent</title>
    <desc>Created with Sketch.</desc>
    <defs></defs>
    <g id="Page-1" stroke="none" stroke-width="1" fill="none" fill-rule="evenodd">
        <g id="Icons" transform="translate(-193.000000, -573.000000)" fill="#4360DF">
            <path d="M309.619998,573 C309.619998,573 439.388325,573 419.379991,573 C457.395833,573 469.515161,573 486.665161,578.716667 C506.673494,585.8625 523.1375,602.297917 530.283333,622.30625 C536,639.45625 536,651.604167 536,689.619998 L536,799.379991 C536,837.395833 536,849.54375 530.283333,866.69375 C523.1375,886.902166 506.902166,903.1375 486.69375,910.283333 C469.54375,916 457.395833,916 419.379991,916 L309.619998,916 C271.604167,916 259.45625,916 242.30625,910.283333 C222.097834,903.1375 205.875759,886.902166 198.716667,866.69375 C193,849.54375 193,837.395833 193,799.379991 C193,799.379991 193,689.619998 193,689.619998 C193,651.604167 193,639.45625 198.716667,622.30625 C205.8625,602.097834 222.097834,585.8625 242.30625,578.716667 C259.45625,573 271.604167,573 309.619998,573 Z M334.810811,734.821622 C358.817946,734.821622 370.182054,739.389189 394.189189,739.389189 C426.71027,739.389189 449,726.298541 449,699.194595 C449,672.090649 430.42827,659 403.324324,659 C359.052291,658.997444 321.87543,692.320413 317.052108,736.328919 C322.914246,735.293031 328.857943,734.78855 334.810811,734.821622 Z M334.810811,750.610811 C302.28973,750.610811 280,763.701459 280,790.805405 C280,817.909351 298.57173,831 325.675676,831 C369.947709,831.002556 407.12457,797.679587 411.947892,753.671081 C406.085754,754.706969 400.142057,755.21145 394.189189,755.178378 C370.182054,755.178378 358.817946,750.610811 334.810811,750.610811 Z" id="status-logo-blue-rectangle-transparent"></path>
        </g>
    </g>
</svg>