
<svg width="394px" height="393px" viewBox="0 0 394 393" version="1.1" xmlns="http://www.w3.org/2000/svg" xmlns:xlink="http://www.w3.org/1999/xlink">
    <!-- Generator: Sketch 48.2 (47327) - http://www.bohemiancoding.com/sketch -->
    <desc>Created with Sketch.</desc>
    <defs>
        <polygon id="path-1" points="0 0 394 0 394 393 0 393"></polygon>
    </defs>
    <g id="Page-1" stroke="none" stroke-width="1" fill="none" fill-rule="evenodd">
        <g id="GRANTS-SITE-Copy-8" transform="translate(-832.000000, -864.000000)">
            <g id="Group-7" transform="translate(743.000000, 636.000000)">
                <g id="Group-4" transform="translate(89.000000, 228.000000)">
                    <g id="Page-1">
                        <mask id="mask-2" fill="white">
                            <use xlink:href="#path-1"></use>
                        </mask>
                        <g id="Clip-2"></g>
                        <path d="M393.675529,185.235847 C381.576253,186.654632 370.326394,178.388666 368.182571,166.184088 C366.037588,153.964378 373.815612,142.319632 385.691235,139.513487 C383.526553,132.270583 380.962076,125.201099 378.017506,118.334132 C367.124565,123.852147 353.7135,119.953107 347.536971,109.20805 C341.362759,98.4699757 344.697853,84.8687259 354.885071,78.1460819 C350.400424,72.1206095 345.573924,66.3686519 340.449606,60.901848 C332.088694,69.7951519 318.182812,70.7251022 308.731447,62.7605846 C299.276606,54.7914115 297.777088,40.8665995 305.057976,31.0503287 C298.822347,26.9324765 292.342206,23.1603003 285.639571,19.7617337 C280.8235,31.0189036 268.059059,36.6870609 256.451124,32.4446722 C244.843188,28.2011195 238.692153,15.6147841 242.209182,3.88158206 C234.988553,2.17764319 227.611482,0.879902861 220.109259,0 C219.402376,12.2185453 209.342629,21.916099 197,21.916099 C184.658529,21.916099 174.597624,12.2185453 173.8919,0 C166.388518,0.879902861 159.012606,2.17764319 151.791976,3.88158206 C155.309006,15.6147841 149.156812,28.2011195 137.550035,32.4446722 C125.9421,36.6870609 113.1765,31.0189036 108.360429,19.7617337 C101.658953,23.1603003 95.1776529,26.9324765 88.9420235,31.0503287 C96.2229118,40.8665995 94.7233941,54.7914115 85.2685529,62.7605846 C75.8171882,70.7251022 61.9124647,69.7951519 53.5503941,60.901848 C48.4260765,66.3686519 43.5995765,72.1206095 39.1149294,78.1460819 C49.3021471,84.8687259 52.6372412,98.4699757 46.4641882,109.20805 C40.2876588,119.953107 26.8765941,123.852147 15.9824941,118.334132 C13.0379235,125.201099 10.4734471,132.270583 8.30876471,139.513487 C20.1843882,142.319632 27.9624118,153.964378 25.8185882,166.184088 C23.6747647,178.388666 12.4237471,186.654632 0.325629412,185.235847 C0.115882353,188.963795 0,192.718513 0,196.5 C0,200.281487 0.115882353,204.035041 0.325629412,207.762989 C12.4237471,206.345368 23.6747647,214.61017 25.8185882,226.815912 C27.9624118,239.035622 20.1843882,250.680368 8.30876471,253.485349 C10.4734471,260.728253 13.0379235,267.798901 15.9824941,274.665868 C26.8765941,269.147853 40.2876588,273.045729 46.4641882,283.79195 C52.6372412,294.52886 49.3021471,308.131274 39.1149294,314.852754 C43.5995765,320.878227 48.4260765,326.631348 53.5503941,332.098152 C61.9124647,323.203684 75.8171882,322.273734 85.2685529,330.238251 C94.7233941,338.208589 96.2229118,352.1334 88.9420235,361.948507 C95.1776529,366.06636 101.658953,369.838536 108.360429,373.237102 C113.1765,361.979932 125.9421,356.311775 137.550035,360.555328 C149.156812,364.797717 155.309006,377.385216 151.790818,389.118418 C159.012606,390.822357 166.388518,392.118933 173.8919,393 C174.597624,380.781455 184.658529,371.083901 197,371.083901 C209.342629,371.083901 219.402376,380.781455 220.109259,393 C227.611482,392.118933 234.988553,390.822357 242.210341,389.118418 C238.692153,377.385216 244.843188,364.797717 256.451124,360.555328 C268.059059,356.311775 280.8235,361.979932 285.639571,373.237102 C292.342206,369.838536 298.822347,366.06636 305.057976,361.948507 C297.777088,352.1334 299.276606,338.208589 308.731447,330.238251 C318.182812,322.273734 332.088694,323.203684 340.449606,332.098152 C345.573924,326.631348 350.400424,320.878227 354.885071,314.852754 C344.697853,308.131274 341.362759,294.52886 347.536971,283.79195 C353.7135,273.045729 367.124565,269.147853 378.017506,274.665868 C380.962076,267.798901 383.526553,260.728253 385.691235,253.485349 C373.815612,250.680368 366.037588,239.035622 368.182571,226.815912 C370.326394,214.61017 381.576253,206.345368 393.675529,207.762989 C393.884118,204.035041 394,200.281487 394,196.5 C394,192.718513 393.884118,188.963795 393.675529,185.235847" id="Fill-1" fill="#2E97FF" opacity="0.600000024" mask="url(#mask-2)"></path>
                    </g>
                    <g id="Group-50" transform="translate(75.000000, 73.000000)">
                        <ellipse id="Oval-21" fill="#FFFFFF" opacity="0.200000003" cx="124.222594" cy="124.405251" rx="124.099148" ry="124.279848"></ellipse>
                        <ellipse id="Oval-21" fill="#FFFFFF" opacity="0.200000003" cx="124.222594" cy="124.405251" rx="88.70625" ry="88.835415"></ellipse>
                        <ellipse id="Oval-21" fill="#FFFFFF" cx="124.222594" cy="124.405251" rx="50.1772727" ry="50.2503358"></ellipse>
                        <g id="Group-51" transform="translate(102.146591, 100.500672)" fill="#314F7A" fill-rule="nonzero">
                            <path d="M13.4821382,24.7040184 C19.5970751,24.3615717 23.4298754,25.7442626 29.5453078,25.4018158 C31.0127143,25.3199264 32.568829,25.1119767 34.047138,24.764071 C33.1456818,35.7397366 25.1406104,45.3426376 14.2547444,45.9520934 C7.57484886,46.3263032 0.898917718,42.3236469 0.53615462,35.8260928 C0.179833912,29.4402056 5.19805664,25.1680587 13.4821382,24.7040184 Z" id="Shape"></path>
                            <path d="M30.375447,21.7266421 C24.26051,22.0690888 20.4277101,20.6863983 14.3122777,21.0288451 C12.8448712,21.1107345 11.2887562,21.3186838 9.81044712,21.6665899 C10.7119034,10.6909243 18.7169747,1.0880233 29.6028408,0.478567504 C36.2827366,0.104357348 42.9586678,4.1070136 43.3214309,10.6045681 C43.6777512,16.9904552 38.6595285,21.2626022 30.375447,21.7266421 Z" id="Shape"></path>
                        </g>
                    </g>
                </g>
            </g>
        </g>
    </g>
</svg>