
<svg width="157px" height="157px" viewBox="0 0 157 157" version="1.1" xmlns="http://www.w3.org/2000/svg" xmlns:xlink="http://www.w3.org/1999/xlink">
    <!-- Generator: Sketch 48.2 (47327) - http://www.bohemiancoding.com/sketch -->
    <desc>Created with Sketch.</desc>
    <defs>
        <polygon id="path-1" points="0 0 157 0 157 157 0 157"></polygon>
    </defs>
    <g id="Page-1" stroke="none" stroke-width="1" fill="none" fill-rule="evenodd">
        <g id="GRANTS-SITE-Copy-8" transform="translate(-990.000000, -636.000000)">
            <g id="Group-7" transform="translate(743.000000, 636.000000)">
                <g id="Page-1-Copy" transform="translate(247.000000, 0.000000)">
                    <mask id="mask-2" fill="white">
                        <use xlink:href="#path-1"></use>
                    </mask>
                    <g id="Clip-2"></g>
                    <path d="M146.712344,66.389063 C145.857618,61.507398 148.956982,56.8554256 153.689147,55.7343955 C152.826571,52.8409199 151.804685,50.0167239 150.631341,47.2734319 C146.290753,49.4778298 140.94675,47.9201978 138.485544,43.6276432 C136.025262,39.3378783 137.354221,33.9043002 141.413594,31.2186637 C139.626565,28.8115412 137.703315,26.5136854 135.661391,24.3297459 C132.329759,27.8825416 126.788582,28.2540485 123.022429,25.0722946 C119.254891,21.8886809 118.657368,16.3258426 121.558635,12.4043298 C119.073879,10.7592845 116.491691,9.25233371 113.820844,7.89463662 C111.90175,12.3917758 106.815412,14.6561541 102.189915,12.9613576 C97.5644176,11.2660961 95.1133706,6.23796719 96.5148265,1.55065747 C93.6375706,0.869949061 90.6979765,0.351513357 87.7085118,0 C87.4268353,4.88120002 83.4182559,8.75528638 78.5,8.75528638 C73.5822059,8.75528638 69.5731647,4.88120002 69.29195,0 C66.3020235,0.351513357 63.3628912,0.869949061 60.4856353,1.55065747 C61.8870912,6.23796719 59.4355824,11.2660961 54.8105471,12.9613576 C50.18505,14.6561541 45.09825,12.3917758 43.1791559,7.89463662 C40.5087706,9.25233371 37.9261206,10.7592845 35.4413647,12.4043298 C38.3426324,16.3258426 37.7451088,21.8886809 33.9775706,25.0722946 C30.2114176,28.2540485 24.6707029,27.8825416 21.3386088,24.3297459 C19.2966853,26.5136854 17.3734353,28.8115412 15.5864059,31.2186637 C19.6457794,33.9043002 20.9747382,39.3378783 18.5149176,43.6276432 C16.0537118,47.9201978 10.7097088,49.4778298 6.36865882,47.2734319 C5.19531471,50.0167239 4.17342941,52.8409199 3.31085294,55.7343955 C8.04301765,56.8554256 11.1423824,61.507398 10.2881176,66.389063 C9.43385294,71.2646834 4.95057941,74.5668631 0.129755882,74.0000711 C0.0461764706,75.4893532 0,76.9893295 0,78.5 C0,80.0106705 0.0461764706,81.5101818 0.129755882,82.999464 C4.95057941,82.4331369 9.43385294,85.7348516 10.2881176,90.610937 C11.1423824,95.492602 8.04301765,100.144574 3.31085294,101.265139 C4.17342941,104.158615 5.19531471,106.983276 6.36865882,109.726568 C10.7097088,107.52217 16.0537118,109.079337 18.5149176,113.372357 C20.9747382,117.661657 19.6457794,123.0957 15.5864059,125.780871 C17.3734353,128.187994 19.2966853,130.486315 21.3386088,132.670254 C24.6707029,129.116993 30.2114176,128.745487 33.9775706,131.92724 C37.7451088,135.111319 38.3426324,140.674157 35.4413647,144.595205 C37.9261206,146.240251 40.5087706,147.747201 43.1791559,149.104898 C45.09825,144.607759 50.18505,142.343381 54.8105471,144.038642 C59.4355824,145.733439 61.8870912,150.762033 60.4851735,155.449343 C63.3628912,156.130051 66.3020235,156.648022 69.29195,157 C69.5731647,152.1188 73.5822059,148.244714 78.5,148.244714 C83.4182559,148.244714 87.4268353,152.1188 87.7085118,157 C90.6979765,156.648022 93.6375706,156.130051 96.5152882,155.449343 C95.1133706,150.762033 97.5644176,145.733439 102.189915,144.038642 C106.815412,142.343381 111.90175,144.607759 113.820844,149.104898 C116.491691,147.747201 119.073879,146.240251 121.558635,144.595205 C118.657368,140.674157 119.254891,135.111319 123.022429,131.92724 C126.788582,128.745487 132.329759,129.116993 135.661391,132.670254 C137.703315,130.486315 139.626565,128.187994 141.413594,125.780871 C137.354221,123.0957 136.025262,117.661657 138.485544,113.372357 C140.94675,109.079337 146.290753,107.52217 150.631341,109.726568 C151.804685,106.983276 152.826571,104.158615 153.689147,101.265139 C148.956982,100.144574 145.857618,95.492602 146.712344,90.610937 C147.566609,85.7348516 152.049421,82.4331369 156.870706,82.999464 C156.953824,81.5101818 157,80.0106705 157,78.5 C157,76.9893295 156.953824,75.4893532 156.870706,74.0000711 C152.049421,74.5668631 147.566609,71.2646834 146.712344,66.389063 Z" id="Fill-1" fill="#EFBBBB" mask="url(#mask-2)"></path>
                    <circle id="Oval-6" fill="#F1F5FD" opacity="0.200000003" mask="url(#mask-2)" cx="82" cy="80" r="39"></circle>
                    <circle id="Oval-6" fill="#F1F5FD" mask="url(#mask-2)" cx="82" cy="79" r="11"></circle>
                </g>
            </g>
        </g>
    </g>
</svg>

