
<svg width="216px" height="216px" viewBox="0 0 216 216" version="1.1" xmlns="http://www.w3.org/2000/svg" xmlns:xlink="http://www.w3.org/1999/xlink">
    <!-- Generator: Sketch 48.2 (47327) - http://www.bohemiancoding.com/sketch -->
    <desc>Created with Sketch.</desc>
    <defs>
        <polygon id="path-1" points="0 0 216 0 216 216 0 216"></polygon>
    </defs>
    <g id="Page-1" stroke="none" stroke-width="1" fill="none" fill-rule="evenodd">
        <g id="GRANTS-SITE-Copy-8" transform="translate(-743.000000, -664.000000)">
            <g id="Group-7" transform="translate(743.000000, 636.000000)">
                <g id="Page-1-Copy" transform="translate(0.000000, 28.000000)">
                    <mask id="mask-2" fill="white">
                        <use xlink:href="#path-1"></use>
                    </mask>
                    <g id="Clip-2"></g>
                    <path d="M215.822118,101.809015 C209.189012,102.588805 203.021576,98.0456791 201.846282,91.3378191 C200.670353,84.6216431 204.934447,78.2214772 211.444941,76.6791684 C210.258212,72.6983356 208.852306,68.8128176 207.238024,65.0386069 C201.266259,68.0714091 193.914,65.928425 190.527882,60.0227448 C187.143035,54.1209027 188.971412,46.6454066 194.556282,42.9505183 C192.097694,39.6388083 189.451694,36.477427 186.642424,33.4727714 C182.058776,38.3606942 174.435247,38.8718119 169.253788,34.4943671 C164.070424,30.1143636 163.248353,22.4610318 167.239906,17.0658295 C163.821388,14.8025825 160.268824,12.7293254 156.594282,10.8614109 C153.954,17.0485577 146.956235,20.1638808 140.592494,17.8321862 C134.228753,15.4998519 130.856612,8.58217142 132.784729,2.13338862 C128.826212,1.19687259 124.781929,0.483610733 120.669035,0 C120.281506,6.71553634 114.766518,12.0454895 108,12.0454895 C101.234118,12.0454895 95.7184941,6.71553634 95.3316,0 C91.2180706,0.483610733 87.1744235,1.19687259 83.2159059,2.13338862 C85.1440235,8.58217142 81.7712471,15.4998519 75.4081412,17.8321862 C69.0444,20.1638808 62.046,17.0485577 59.4057176,10.8614109 C55.7318118,12.7293254 52.1786118,14.8025825 48.7600941,17.0658295 C52.7516471,22.4610318 51.9295765,30.1143636 46.7462118,34.4943671 C41.5647529,38.8718119 33.9418588,38.3606942 29.3575765,33.4727714 C26.5483059,36.477427 23.9023059,39.6388083 21.4437176,42.9505183 C27.0285882,46.6454066 28.8569647,54.1209027 25.4727529,60.0227448 C22.0866353,65.928425 14.7343765,68.0714091 8.76197647,65.0386069 C7.14769412,68.8128176 5.74178824,72.6983356 4.55505882,76.6791684 C11.0655529,78.2214772 15.3296471,84.6216431 14.1543529,91.3378191 C12.9790588,98.0456791 6.81098824,102.588805 0.178517647,101.809015 C0.0635294118,103.857964 0,105.921625 0,108 C0,110.078375 0.0635294118,112.141397 0.178517647,114.190345 C6.81098824,113.411195 12.9790588,117.953681 14.1543529,124.662181 C15.3296471,131.378357 11.0655529,137.778523 4.55505882,139.320192 C5.74178824,143.301025 7.14769412,147.187182 8.76197647,150.961393 C14.7343765,147.928591 22.0866353,150.070935 25.4727529,155.977255 C28.8569647,161.878458 27.0285882,169.354593 21.4437176,173.048842 C23.9023059,176.360552 26.5483059,179.522573 29.3575765,182.527229 C33.9418588,177.638666 41.5647529,177.127548 46.7462118,181.504993 C51.9295765,185.885636 52.7516471,193.538968 48.7600941,198.933531 C52.1786118,201.196778 55.7318118,203.270035 59.4057176,205.137949 C62.046,198.950803 69.0444,195.835479 75.4081412,198.167814 C81.7712471,200.499508 85.1440235,207.417829 83.2152706,213.866611 C87.1744235,214.803127 91.2180706,215.51575 95.3316,216 C95.7184941,209.284464 101.234118,203.95451 108,203.95451 C114.766518,203.95451 120.281506,209.284464 120.669035,216 C124.781929,215.51575 128.826212,214.803127 132.785365,213.866611 C130.856612,207.417829 134.228753,200.499508 140.592494,198.167814 C146.956235,195.835479 153.954,198.950803 156.594282,205.137949 C160.268824,203.270035 163.821388,201.196778 167.239906,198.933531 C163.248353,193.538968 164.070424,185.885636 169.253788,181.504993 C174.435247,177.127548 182.058776,177.638666 186.642424,182.527229 C189.451694,179.522573 192.097694,176.360552 194.556282,173.048842 C188.971412,169.354593 187.143035,161.878458 190.527882,155.977255 C193.914,150.070935 201.266259,147.928591 207.238024,150.961393 C208.852306,147.187182 210.258212,143.301025 211.444941,139.320192 C204.934447,137.778523 200.670353,131.378357 201.846282,124.662181 C203.021576,117.953681 209.189012,113.411195 215.822118,114.190345 C215.936471,112.141397 216,110.078375 216,108 C216,105.921625 215.936471,103.857964 215.822118,101.809015" id="Fill-1" fill="#979BFA" mask="url(#mask-2)"></path>
                    <circle id="Oval-6" fill="#F1F5FD" opacity="0.200000003" mask="url(#mask-2)" cx="112" cy="108" r="53"></circle>
                    <circle id="Oval-6" fill="#F1F5FD" mask="url(#mask-2)" cx="112.5" cy="108.5" r="14.5"></circle>
                </g>
            </g>
        </g>
    </g>
</svg>